# xmcd
#
# Track frame offsets:
#	180
#	13831
#	25219
#	37293
#	51694
#	64804
#	79640
#	92639
#	103941
#	121744
#	135793
#	150508
#	164016
#	176133
#	188601
#	203339
#	216992
#	232540
#
# Disc length: 3273 seconds
#
# Revision: 1
# Processed by: cddbd v1.5.2PL0 Copyright (c) Steve Scherf et al.
# Submitted via: audiograbber 1.83.01
#
DISCID=ed0cc712
DTITLE=Various Artist - Blues Festival CD 5
DYEAR=2005
DGENRE=Blues
TTITLE0=Blind Willie Mc Tell - Georgia Rag
TTITLE1=Lightnin' Hopkins - Honey Babe
TTITLE2=Brownie Mc Ghee - So Much Trouble
TTITLE3=Bessie Smith - Cold In Hand Blues
TTITLE4=Arthur Big Boy Crudrup - Rock Me, Mama
TTITLE5=Big Joe Williams - 49 Highway Blues
TTITLE6=Bessie Smith - Blue Spirit Blues
TTITLE7=Mahalia Jackson - Didn't It Rain?
TTITLE8=John Lee Hooker - Morning Blues
TTITLE9=Bessie Smith - Easy Come, Easy Go Blues
TTITLE10=Leadbelly - Rhe Bourgeois Blues
TTITLE11=John Lee Hooker - Morning Blues
TTITLE12=Brownie Mc Ghee - Back Door Stranger
TTITLE13=John Lee Hooker - Graveyard Blues
TTITLE14=Memphis Minnie  - Bumble Bee
TTITLE15=Sonny Terry and Brownie Mc Ghee - Man Ain't Nothing But A Fool
TTITLE16=Bessie Smith - Outside Of That
TTITLE17=John Lee Hooker - I want To Hug You
EXTD=
EXTT0=
EXTT1=
EXTT2=
EXTT3=
EXTT4=
EXTT5=
EXTT6=
EXTT7=
EXTT8=
EXTT9=
EXTT10=
EXTT11=
EXTT12=
EXTT13=
EXTT14=
EXTT15=
EXTT16=
EXTT17=
PLAYORDER=
